<svg xmlns="http://www.w3.org/2000/svg" width="252" height="225" viewBox="0 0 252.00 225.21">
  <rect width="252.00" height="225.21" fill="#ffffff"/>
  <polygon points="226.00,112.60 176.00,199.21 76.00,199.21 26.00,112.60 76.00,26.00 176.00,26.00" fill="none" stroke="#000" stroke-width="4"/>
  <path d="M 212.00 151.21 L 207.56 148.17 L 202.85 145.55 L 197.93 143.36 L 192.84 141.62 L 187.61 140.34 L 182.28 139.53 L 176.91 139.21 L 171.52 139.37 L 166.18 140.01 L 160.91 141.13 L 155.76 142.72 L 150.78 144.76 L 146.00 147.24 L 141.46 150.14 L 137.20 153.44 L 133.25 157.10 L 129.65 161.10 L 126.42 165.41 L 123.59 169.99 L 121.18 174.81 L 119.22 179.82 L 117.71 184.99 L 116.67 190.28 L 116.11 195.63 L 116.03 201.02 L 116.43 206.39 L 136.29 203.99 L 136.02 200.41 L 136.07 196.82 L 136.45 193.25 L 137.14 189.73 L 138.14 186.28 L 139.46 182.94 L 141.06 179.73 L 142.95 176.68 L 145.10 173.80 L 147.50 171.14 L 150.13 168.69 L 152.97 166.50 L 156.00 164.56 L 159.19 162.91 L 162.51 161.55 L 165.94 160.49 L 169.45 159.74 L 173.02 159.32 L 176.60 159.21 L 180.19 159.42 L 183.74 159.96 L 187.23 160.81 L 190.62 161.97 L 193.90 163.43 L 197.04 165.18 L 200.00 167.21 Z" fill="#fff" stroke="none"/>
  <path d="M 206.00 147.24 L 201.72 145.00 L 197.28 143.10 L 192.69 141.57 L 188.00 140.42 L 183.23 139.64 L 178.42 139.25 L 173.58 139.25 L 168.77 139.64 L 164.00 140.42 L 159.31 141.57 L 154.72 143.10 L 150.28 145.00 L 146.00 147.24 L 141.92 149.83 L 138.05 152.73 L 134.44 155.93 L 131.09 159.42 L 128.03 163.16 L 125.29 167.14 L 122.87 171.32 L 120.80 175.69 L 119.09 180.21 L 117.74 184.85 L 116.78 189.58 L 116.19 194.38 L 116.00 199.21" fill="none" stroke="#000" stroke-width="4" stroke-linecap="butt"/>
  <path d="M 196.00 164.56 L 193.15 163.07 L 190.18 161.80 L 187.13 160.78 L 184.00 160.01 L 180.82 159.50 L 177.61 159.24 L 174.39 159.24 L 171.18 159.50 L 168.00 160.01 L 164.87 160.78 L 161.82 161.80 L 158.85 163.07 L 156.00 164.56 L 153.28 166.29 L 150.70 168.22 L 148.29 170.36 L 146.06 172.68 L 144.02 175.18 L 142.19 177.83 L 140.58 180.62 L 139.20 183.53 L 138.06 186.54 L 137.16 189.63 L 136.52 192.79 L 136.13 195.99 L 136.00 199.21"  fill="none" stroke="#000" stroke-width="4" stroke-linecap="butt"/>
  <path d="M 50.39 167.65 L 56.46 164.29 L 62.38 160.68 L 68.14 156.81 L 73.72 152.69 L 79.12 148.34 L 84.33 143.75 L 89.33 138.95 L 94.12 133.93 L 98.68 128.71 L 103.02 123.30 L 107.12 117.70 L 110.97 111.93 L 114.56 106.00 L 117.90 99.92 L 120.97 93.70 L 123.77 87.35 L 126.29 80.89 L 128.53 74.33 L 130.48 67.67 L 132.14 60.94 L 133.51 54.14 L 134.58 47.28 L 135.35 40.39 L 135.83 33.47 L 136.00 26.54 L 135.87 19.60 L 115.89 20.40 L 116.00 26.47 L 115.85 32.54 L 115.43 38.59 L 114.76 44.62 L 113.82 50.62 L 112.62 56.57 L 111.17 62.46 L 109.46 68.29 L 107.50 74.03 L 105.30 79.68 L 102.85 85.24 L 100.16 90.68 L 97.24 96.00 L 94.10 101.19 L 90.73 106.24 L 87.14 111.13 L 83.35 115.87 L 79.35 120.44 L 75.16 124.83 L 70.78 129.03 L 66.23 133.04 L 61.51 136.85 L 56.62 140.46 L 51.58 143.84 L 46.41 147.01 L 41.10 149.95 Z" fill="#fff" stroke="none"/>
  <path d="M 56.00 164.56 L 61.51 161.23 L 66.89 157.68 L 72.12 153.91 L 77.19 149.94 L 82.10 145.76 L 86.84 141.39 L 91.39 136.84 L 95.76 132.10 L 99.94 127.19 L 103.91 122.12 L 107.68 116.89 L 111.23 111.51 L 114.56 106.00 L 117.67 100.36 L 120.55 94.59 L 123.20 88.71 L 125.60 82.74 L 127.77 76.67 L 129.68 70.51 L 131.35 64.29 L 132.77 58.00 L 133.93 51.67 L 134.83 45.29 L 135.48 38.87 L 135.87 32.44 L 136.00 26.00" fill="none" stroke="#000" stroke-width="4" stroke-linecap="butt"/>
  <path d="M 46.00 147.24 L 50.83 144.33 L 55.53 141.22 L 60.10 137.92 L 64.54 134.44 L 68.84 130.79 L 72.98 126.97 L 76.97 122.98 L 80.79 118.84 L 84.44 114.54 L 87.92 110.10 L 91.22 105.53 L 94.33 100.83 L 97.24 96.00 L 99.96 91.06 L 102.48 86.02 L 104.80 80.88 L 106.90 75.64 L 108.80 70.33 L 110.47 64.95 L 111.93 59.50 L 113.17 54.00 L 114.19 48.46 L 114.98 42.88 L 115.55 37.27 L 115.89 31.64 L 116.00 26.00"  fill="none" stroke="#000" stroke-width="4" stroke-linecap="butt"/>
  <path d="M 40.52 74.65 L 46.47 78.23 L 52.56 81.55 L 58.79 84.60 L 65.14 87.37 L 71.61 89.87 L 78.19 92.09 L 84.85 94.01 L 91.59 95.65 L 98.39 97.00 L 105.25 98.05 L 112.14 98.80 L 119.07 99.25 L 126.00 99.40 L 132.93 99.25 L 139.86 98.80 L 146.75 98.05 L 153.61 97.00 L 160.41 95.65 L 167.15 94.01 L 173.81 92.09 L 180.39 89.87 L 186.86 87.37 L 193.21 84.60 L 199.44 81.55 L 205.53 78.23 L 211.48 74.65 L 200.79 57.74 L 195.59 60.88 L 190.26 63.78 L 184.81 66.45 L 179.25 68.87 L 173.59 71.06 L 167.84 73.00 L 162.01 74.69 L 156.11 76.12 L 150.16 77.30 L 144.16 78.22 L 138.12 78.87 L 132.07 79.27 L 126.00 79.40 L 119.93 79.27 L 113.88 78.87 L 107.84 78.22 L 101.84 77.30 L 95.89 76.12 L 89.99 74.69 L 84.16 73.00 L 78.41 71.06 L 72.75 68.87 L 67.19 66.45 L 61.74 63.78 L 56.41 60.88 L 51.21 57.74 Z" fill="#fff" stroke="none"/>
  <path d="M 46.00 77.96 L 51.64 81.07 L 57.41 83.95 L 63.29 86.59 L 69.26 89.00 L 75.33 91.16 L 81.49 93.08 L 87.71 94.75 L 94.00 96.16 L 100.33 97.33 L 106.71 98.23 L 113.13 98.88 L 119.56 99.27 L 126.00 99.40 L 132.44 99.27 L 138.87 98.88 L 145.29 98.23 L 151.67 97.33 L 158.00 96.16 L 164.29 94.75 L 170.51 93.08 L 176.67 91.16 L 182.74 89.00 L 188.71 86.59 L 194.59 83.95 L 200.36 81.07 L 206.00 77.96" fill="none" stroke="#000" stroke-width="4" stroke-linecap="butt"/>
  <path d="M 56.00 60.64 L 60.94 63.36 L 65.98 65.88 L 71.12 68.19 L 76.36 70.30 L 81.67 72.19 L 87.05 73.87 L 92.50 75.33 L 98.00 76.57 L 103.54 77.58 L 109.12 78.38 L 114.73 78.94 L 120.36 79.28 L 126.00 79.40 L 131.64 79.28 L 137.27 78.94 L 142.88 78.38 L 148.46 77.58 L 154.00 76.57 L 159.50 75.33 L 164.95 73.87 L 170.33 72.19 L 175.64 70.30 L 180.88 68.19 L 186.02 65.88 L 191.06 63.36 L 196.00 60.64"  fill="none" stroke="#000" stroke-width="4" stroke-linecap="butt"/>
</svg>